# xmcd
# Track frame offsets:
# 149
# 20414
# 38539
# 59703
# 81388
# 107836
# 123194
# 144204
# 171324
# 190256
# 212489
# 235012
# 261777
# 283957
#
# Disc length: 4082 seconds
# Revision: 0
# Processed by: cddbd v1.4PL0 Copyright (c) Steve Scherf et al.
# Submitted via: VisiTrax 2.9.5.181 - For more info visit www.synapsa.com
#
DISCID=c50ff10e
DTITLE=Various Artist - Ultimate Southern Soul
DYEAR=2003
DGENRE=Blues
TTITLE0=The Love Doctor - Slow Roll It
TTITLE1=Sir Charles Jones - Friday
TTITLE2=La Keisha - Already Gone
TTITLE3=Mr. Zay - She Only Want's To See Me On Friday
TTITLE4=X-Man - 2 Birds
TTITLE5=Big Ike - Teddy Bear
TTITLE6=Sir Charles Jones - Is Anybody Lonely?
TTITLE7=La Keisha and Sir Charles Jones - Just Another Love Song
TTITLE8=Andre' Lee - Pony Ride
TTITLE9=Stan Mosley - Rockin' Slide
TTITLE10=Cicero Blake - Waiting On You
TTITLE11=Tonya - Give Credit Where Credit Is Due
TTITLE12=The Love Doctor (F/Thomisene Anderson) - You Said It, No I Didn't (Lie
TTITLE12=s)
TTITLE13=Eric Perkins - Hood Rat
EXTD=
EXTT0=
EXTT1=
EXTT2=
EXTT3=
EXTT4=
EXTT5=
EXTT6=
EXTT7=
EXTT8=
EXTT9=
EXTT10=
EXTT11=
EXTT12=
EXTT13=
PLAYORDER=
